<svg viewBox="0 0 40 40" xmlns="http://www.w3.org/2000/svg" xmlns:xlink="http://www.w3.org/1999/xlink" width="40.000000" height="40.000000" fill="none" customFrame="#000000">
	<defs>
		<clipPath id="clipPath_0">
			<rect width="18.000000" height="18.000000" x="11.000000" y="11.000000" fill="rgb(255,255,255)" />
		</clipPath>
		<clipPath id="clipPath_1">
			<rect width="18.000000" height="18.000000" x="11.000000" y="11.000000" fill="rgb(255,255,255)" />
		</clipPath>
		<clipPath id="clipPath_2">
			<rect width="18.000000" height="18.000000" x="11.000000" y="11.000000" fill="rgb(255,255,255)" />
		</clipPath>
		<clipPath id="clipPath_3">
			<rect width="18.000000" height="18.000000" x="11.000000" y="11.000000" fill="rgb(255,255,255)" />
		</clipPath>
	</defs>
	<g id="Home">
		<circle id="Ellipse 10" cx="20" cy="20" r="20" fill="rgb(255,180,0)" />
		<g id="Icons/Home" customFrame="url(#clipPath_0)">
			<rect id="Icons/Home" width="18.000000" height="18.000000" x="11.000000" y="11.000000" fill="rgb(255,255,255)" fill-opacity="0" />
			<g id="Icons/Home" customFrame="url(#clipPath_1)">
				<rect id="Icons/Home" width="18.000000" height="18.000000" x="11.000000" y="11.000000" fill="rgb(255,255,255)" fill-opacity="0" />
				<g id="Icons/Home" customFrame="url(#clipPath_2)">
					<rect id="Icons/Home" width="18.000000" height="18.000000" x="11.000000" y="11.000000" fill="rgb(255,255,255)" fill-opacity="0" />
					<g id="Icons/Home" clip-path="url(#clipPath_3)" customFrame="url(#clipPath_3)">
						<rect id="Icons/Home" width="18.000000" height="18.000000" x="11.000000" y="11.000000" fill="rgb(255,255,255)" fill-opacity="0" />
						<path id="Vector" d="M11 11L29 11L29 29L11 29L11 11Z" fill-rule="nonzero" />
						<path id="Vector" d="M26 25.9999C26 26.1989 25.921 26.3896 25.7803 26.5303C25.6397 26.6709 25.4489 26.7499 25.25 26.7499L14.75 26.7499C14.5511 26.7499 14.3603 26.6709 14.2197 26.5303C14.079 26.3896 14 26.1989 14 25.9999L14 19.2499L11.75 19.2499L19.4953 12.2089C19.6333 12.0833 19.8133 12.0137 20 12.0137C20.1867 12.0137 20.3667 12.0833 20.5047 12.2089L28.25 19.2499L26 19.2499L26 25.9999Z" fill="rgb(43,43,43)" fill-rule="nonzero" />
					</g>
				</g>
			</g>
		</g>
	</g>
</svg>
